<svg width="117" height="36" viewBox="0 0 117 36" fill="none" xmlns="http://www.w3.org/2000/svg">
<path d="M26.8945 11.6562C26.9336 11.8125 26.9531 12.0664 26.9531 12.418C26.9531 14.4883 26.5625 16.5586 25.7812 18.6289C25 20.6602 23.8867 22.5352 22.4414 24.2539C21.0352 25.9336 19.1992 27.3008 16.9336 28.3555C14.668 29.4102 12.168 29.9375 9.43359 29.9375C5.99609 29.9375 2.85156 29.0195 0 27.1836C0.429688 27.2227 0.917969 27.2422 1.46484 27.2422C4.31641 27.2422 6.875 26.3633 9.14062 24.6055C7.77344 24.6055 6.5625 24.2148 5.50781 23.4336C4.49219 22.6133 3.78906 21.5977 3.39844 20.3867C3.78906 20.4258 4.16016 20.4453 4.51172 20.4453C5.05859 20.4453 5.60547 20.3867 6.15234 20.2695C5.21484 20.0742 4.375 19.6836 3.63281 19.0977C2.89062 18.5117 2.30469 17.8086 1.875 16.9883C1.44531 16.1289 1.23047 15.2109 1.23047 14.2344V14.1172C2.08984 14.625 3.00781 14.8984 3.98438 14.9375C2.14844 13.6875 1.23047 11.9688 1.23047 9.78125C1.23047 8.6875 1.52344 7.65234 2.10938 6.67578C3.63281 8.58984 5.48828 10.1133 7.67578 11.2461C9.90234 12.3789 12.2656 13.0039 14.7656 13.1211C14.6875 12.6523 14.6484 12.1836 14.6484 11.7148C14.6484 10.0352 15.2344 8.58984 16.4062 7.37891C17.6172 6.16797 19.0625 5.5625 20.7422 5.5625C22.5391 5.5625 24.043 6.20703 25.2539 7.49609C26.6602 7.22266 27.9688 6.73438 29.1797 6.03125C28.7109 7.47656 27.8125 8.60938 26.4844 9.42969C27.6562 9.27344 28.8281 8.94141 30 8.43359C29.1406 9.68359 28.1055 10.7578 26.8945 11.6562Z" fill="white"/>
<path d="M54.3789 13.0039C55.707 11.6758 57.3086 11.0117 59.1836 11.0117C61.0586 11.0117 62.6406 11.6758 63.9297 13.0039C65.2578 14.293 65.9219 15.875 65.9219 17.75C65.9219 19.625 65.2578 21.2266 63.9297 22.5547C62.6406 23.8438 61.0586 24.4883 59.1836 24.4883C57.3086 24.4883 55.707 23.8438 54.3789 22.5547C53.0898 21.2266 52.4453 19.625 52.4453 17.75C52.4453 15.875 53.0898 14.293 54.3789 13.0039ZM56.0781 20.8555C56.9375 21.7148 57.9727 22.1445 59.1836 22.1445C60.3945 22.1445 61.4297 21.7148 62.2891 20.8555C63.1484 19.9961 63.5781 18.9609 63.5781 17.75C63.5781 16.5391 63.1484 15.5039 62.2891 14.6445C61.4297 13.7852 60.3945 13.3555 59.1836 13.3555C57.9727 13.3555 56.9375 13.7852 56.0781 14.6445C55.2188 15.5039 54.7891 16.5391 54.7891 17.75C54.7891 18.9609 55.2188 19.9961 56.0781 20.8555ZM67.2695 9.66406C67.582 9.9375 67.7383 10.2891 67.7383 10.7188C67.7383 11.1484 67.582 11.5195 67.2695 11.832C66.9961 12.1445 66.6445 12.3008 66.2148 12.3008C65.7852 12.3008 65.4141 12.1445 65.1016 11.832C64.7891 11.5195 64.6328 11.1484 64.6328 10.7188C64.6328 10.2891 64.7891 9.9375 65.1016 9.66406C65.4141 9.35156 65.7852 9.19531 66.2148 9.19531C66.6445 9.19531 66.9961 9.35156 67.2695 9.66406ZM72.25 12.3594C72.2891 13.4141 72.3086 15.2109 72.3086 17.75C72.3086 20.2891 72.2891 22.0859 72.25 23.1406C72.1328 25.5234 71.4102 27.3789 70.082 28.707C68.793 29.9961 66.957 30.6797 64.5742 30.7578C63.5195 30.8359 61.7227 30.875 59.1836 30.875C56.6445 30.875 54.8477 30.8359 53.793 30.7578C51.4102 30.6406 49.5742 29.9375 48.2852 28.6484C47.7773 28.1797 47.3672 27.6328 47.0547 27.0078C46.7422 26.3828 46.5078 25.7773 46.3516 25.1914C46.2344 24.6055 46.1758 23.9219 46.1758 23.1406C46.0977 22.0859 46.0586 20.2891 46.0586 17.75C46.0586 15.2109 46.0977 13.3945 46.1758 12.3008C46.293 9.95703 46.9961 8.14062 48.2852 6.85156C49.5742 5.52344 51.4102 4.80078 53.793 4.68359C54.8477 4.64453 56.6445 4.625 59.1836 4.625C61.7227 4.625 63.5195 4.64453 64.5742 4.68359C66.957 4.80078 68.793 5.52344 70.082 6.85156C71.4102 8.14062 72.1328 9.97656 72.25 12.3594ZM69.4375 25.4844C69.5547 25.1719 69.6523 24.7812 69.7305 24.3125C69.8086 23.8047 69.8672 23.2188 69.9062 22.5547C69.9453 21.8516 69.9648 21.2852 69.9648 20.8555C69.9648 20.4258 69.9648 19.8203 69.9648 19.0391C69.9648 18.2578 69.9648 17.8281 69.9648 17.75C69.9648 17.6328 69.9648 17.2031 69.9648 16.4609C69.9648 15.6797 69.9648 15.0742 69.9648 14.6445C69.9648 14.2148 69.9453 13.668 69.9062 13.0039C69.8672 12.3008 69.8086 11.7148 69.7305 11.2461C69.6523 10.7383 69.5547 10.3281 69.4375 10.0156C68.9688 8.80469 68.1289 7.96484 66.918 7.49609C66.6055 7.37891 66.1953 7.28125 65.6875 7.20312C65.2188 7.125 64.6328 7.06641 63.9297 7.02734C63.2656 6.98828 62.7188 6.96875 62.2891 6.96875C61.8984 6.96875 61.293 6.96875 60.4727 6.96875C59.6914 6.96875 59.2617 6.96875 59.1836 6.96875C59.1055 6.96875 58.6758 6.96875 57.8945 6.96875C57.1133 6.96875 56.5078 6.96875 56.0781 6.96875C55.6484 6.96875 55.082 6.98828 54.3789 7.02734C53.7148 7.06641 53.1289 7.125 52.6211 7.20312C52.1523 7.28125 51.7617 7.37891 51.4492 7.49609C50.2383 7.96484 49.3984 8.80469 48.9297 10.0156C48.8125 10.3281 48.7148 10.7383 48.6367 11.2461C48.5586 11.7148 48.5 12.3008 48.4609 13.0039C48.4219 13.668 48.4023 14.2148 48.4023 14.6445C48.4023 15.0352 48.4023 15.6406 48.4023 16.4609C48.4023 17.2422 48.4023 17.6719 48.4023 17.75C48.4023 17.9062 48.4023 18.2773 48.4023 18.8633C48.4023 19.4102 48.4023 19.8789 48.4023 20.2695C48.4023 20.6211 48.4023 21.0898 48.4023 21.6758C48.4414 22.2617 48.4805 22.7695 48.5195 23.1992C48.5586 23.5898 48.6172 24 48.6953 24.4297C48.7734 24.8594 48.8516 25.2109 48.9297 25.4844C49.4375 26.6953 50.2773 27.5352 51.4492 28.0039C51.7617 28.1211 52.1523 28.2188 52.6211 28.2969C53.1289 28.375 53.7148 28.4336 54.3789 28.4727C55.082 28.5117 55.6289 28.5312 56.0195 28.5312C56.4492 28.5312 57.0547 28.5312 57.8359 28.5312C58.6562 28.5312 59.1055 28.5312 59.1836 28.5312C59.3008 28.5312 59.7305 28.5312 60.4727 28.5312C61.2539 28.5312 61.8594 28.5312 62.2891 28.5312C62.7188 28.5312 63.2656 28.5117 63.9297 28.4727C64.6328 28.4336 65.2188 28.375 65.6875 28.2969C66.1953 28.2188 66.6055 28.1211 66.918 28.0039C68.1289 27.4961 68.9688 26.6562 69.4375 25.4844Z" fill="white"/>
<path d="M114.375 4.625C114.883 4.625 115.312 4.82031 115.664 5.21094C116.055 5.5625 116.25 5.99219 116.25 6.5V29C116.25 29.5078 116.055 29.9375 115.664 30.2891C115.312 30.6797 114.883 30.875 114.375 30.875H91.875C91.3672 30.875 90.918 30.6797 90.5273 30.2891C90.1758 29.9375 90 29.5078 90 29V6.5C90 5.99219 90.1758 5.5625 90.5273 5.21094C90.918 4.82031 91.3672 4.625 91.875 4.625H114.375ZM97.9102 27.125H97.9688V14.5859H94.043V27.125H97.9102ZM94.3945 12.2422C94.8242 12.6719 95.3516 12.8867 95.9766 12.8867C96.6016 12.8867 97.1289 12.6719 97.5586 12.2422C98.0273 11.7734 98.2617 11.2461 98.2617 10.6602C98.2617 10.0352 98.0273 9.50781 97.5586 9.07812C97.1289 8.60938 96.6016 8.375 95.9766 8.375C95.3516 8.375 94.8242 8.60938 94.3945 9.07812C93.9648 9.50781 93.75 10.0352 93.75 10.6602C93.75 11.2461 93.9648 11.7734 94.3945 12.2422ZM112.5 27.125V20.2695C112.5 19.332 112.441 18.5312 112.324 17.8672C112.207 17.2031 111.992 16.5977 111.68 16.0508C111.367 15.4648 110.879 15.0352 110.215 14.7617C109.59 14.4492 108.809 14.293 107.871 14.293C106.973 14.293 106.191 14.4883 105.527 14.8789C104.902 15.2695 104.453 15.7383 104.18 16.2852H104.121V14.5859H100.371V27.125H104.297V20.9141C104.297 19.9375 104.453 19.1562 104.766 18.5703C105.078 17.9844 105.684 17.6914 106.582 17.6914C107.051 17.6914 107.441 17.7891 107.754 17.9844C108.066 18.1797 108.262 18.4727 108.34 18.8633C108.457 19.2539 108.535 19.6055 108.574 19.918C108.613 20.1914 108.633 20.5625 108.633 21.0312V27.125H112.5Z" fill="white"/>
</svg>
